<?xml version="1.0" encoding="utf-8"?>
<!-- Generator: Adobe Illustrator 16.0.0, SVG Export Plug-In . SVG Version: 6.00 Build 0)  -->
<!DOCTYPE svg PUBLIC "-//W3C//DTD SVG 1.1//EN" "http://www.w3.org/Graphics/SVG/1.1/DTD/svg11.dtd">
<svg version="1.1" id="Capa_1" xmlns="http://www.w3.org/2000/svg" xmlns:xlink="http://www.w3.org/1999/xlink" x="0px" y="0px"
	 width="924px" height="924px" viewBox="0 0 924 924" enable-background="new 0 0 924 924" xml:space="preserve">
<path fill="#FDD935" d="M879.982,44.001c-58.701-58.668-154.179-58.668-212.88,0l-603.1,603.1c-0.285,0.285-0.452,0.636-0.703,0.937
	c-0.351,0.401-0.652,0.837-0.97,1.271c-0.886,1.237-1.572,2.559-2.09,3.997c-0.15,0.435-0.368,0.819-0.485,1.254
	c-0.05,0.168-0.15,0.335-0.201,0.502L0.435,903.413c-0.268,1.12-0.334,2.257-0.368,3.378c0,0.218-0.067,0.418-0.067,0.636
	c0.017,1.906,0.435,3.763,1.087,5.552c0.151,0.419,0.318,0.786,0.502,1.188c0.819,1.79,1.839,3.513,3.278,4.95
	c1.589,1.589,3.462,2.81,5.485,3.646c2.024,0.836,4.181,1.254,6.338,1.254c1.288,0,2.592-0.15,3.863-0.451l248.351-59.119
	c0.452-0.101,0.853-0.352,1.288-0.502c0.568-0.185,1.104-0.401,1.655-0.652c1.205-0.552,2.325-1.237,3.362-2.058
	c0.401-0.317,0.819-0.552,1.204-0.902c0.134-0.134,0.301-0.201,0.435-0.335L879.966,256.88
	C938.667,198.179,938.667,102.685,879.982,44.001z M856.335,67.648c41.609,41.626,45.154,106.983,10.87,152.807L703.527,56.778
	C749.368,22.494,814.726,26.039,856.335,67.648z M773.551,316L607.983,150.432l23.648-23.647l165.567,165.567L773.551,316z
	 M82.968,841.016c-6.539-6.539-17.109-6.539-23.648,0l-12.66,12.66l42.713-179.415l73.953-8.212l-9.516,85.661
	c-0.067,0.635,0.167,1.221,0.167,1.839c0,0.636-0.234,1.204-0.167,1.84c0.067,0.552,0.351,1.004,0.468,1.539
	c0.201,0.97,0.485,1.856,0.836,2.759c0.435,1.087,0.954,2.074,1.589,3.027c0.519,0.77,1.037,1.455,1.672,2.124
	c0.803,0.853,1.672,1.572,2.626,2.241c0.752,0.519,1.472,1.003,2.308,1.404c1.104,0.519,2.258,0.819,3.462,1.104
	c0.636,0.15,1.154,0.501,1.806,0.585c0.602,0.066,1.204,0.101,1.823,0.101h0.017h0.017h0.017h0.017c0.602,0,1.221-0.034,1.823-0.101
	l85.66-9.516l-8.211,73.953L70.308,877.323l12.66-12.66C89.49,858.141,89.49,847.555,82.968,841.016z M292.854,749.385
	l374.249-374.266c6.539-6.539,6.539-17.109,0-23.648s-17.108-6.539-23.647,0L269.206,725.737l-79.824,8.863l8.864-79.823
	l374.283-374.249c6.539-6.539,6.539-17.109,0-23.648s-17.109-6.539-23.648,0L174.598,631.13l-53.232,5.92l462.97-462.97
	l165.567,165.567l-462.97,462.97L292.854,749.385z M820.847,268.704L655.279,103.137l23.664-23.665L844.511,245.04L820.847,268.704z
	"/>
</svg>
