<?xml version="1.0" encoding="utf-8"?>
<!-- Generator: Adobe Illustrator 16.0.0, SVG Export Plug-In . SVG Version: 6.00 Build 0)  -->
<!DOCTYPE svg PUBLIC "-//W3C//DTD SVG 1.1//EN" "http://www.w3.org/Graphics/SVG/1.1/DTD/svg11.dtd">
<svg version="1.1" id="Capa_1" xmlns="http://www.w3.org/2000/svg" xmlns:xlink="http://www.w3.org/1999/xlink" x="0px" y="0px"
	 width="924px" height="924px" viewBox="0 0 924 924" enable-background="new 0 0 924 924" xml:space="preserve">
<g>
	<g>
		<path fill="#FDD935" d="M389.78,165.513l-26.926-11.875c-1.221-4.521-2.546-8.8-4.022-12.928l14.962-25.765
			c2.728-4.712,2.773-10.509,0.122-15.263c-7.372-13.159-16.174-25.464-26.247-36.691c-3.734-4.207-9.472-6.027-14.947-4.747
			l-28.326,6.48c-3.3-2.637-6.745-5.179-10.336-7.624l-2.742-29.985c-0.509-5.479-3.896-10.272-8.889-12.581
			C268.926,8.212,254.746,3.45,240.164,0.343c-5.5-1.17-11.2,0.76-14.856,5.032l-19.769,22.949h-11.873L173.893,5.373
			c-3.653-4.275-9.356-6.208-14.856-5.032c-14.583,3.109-28.762,7.871-42.265,14.193c-4.999,2.312-8.386,7.113-8.889,12.596
			L105.141,57.1c-3.572,2.442-7.036,4.987-10.336,7.624l-28.33-6.479C61,56.961,55.26,58.783,51.528,62.992
			C41.453,74.216,32.65,86.521,25.281,99.683c-2.652,4.754-2.605,10.551,0.122,15.263l14.962,25.765
			c-1.478,4.129-2.802,8.407-4.023,12.928L9.414,165.511c-5.589,2.471-9.194,8.006-9.192,14.118v41.917
			c-0.004,6.112,3.601,11.647,9.192,14.118l26.926,11.875c1.221,4.521,2.546,8.8,4.023,12.928L25.4,286.231
			c-2.727,4.711-2.773,10.509-0.122,15.263c7.372,13.159,16.174,25.464,26.247,36.691c3.74,4.196,9.472,6.017,14.947,4.746
			l28.326-6.48c3.3,2.636,6.745,5.178,10.336,7.624l2.743,29.985c0.509,5.479,3.896,10.272,8.889,12.581
			c13.502,6.324,27.682,11.086,42.264,14.193c5.5,1.163,11.196-0.766,14.856-5.032l19.769-22.947h11.873l19.769,22.947
			c2.93,3.408,7.2,5.367,11.693,5.363c1.063,0.002,2.124-0.109,3.165-0.331c14.583-3.109,28.762-7.871,42.265-14.193
			c4.999-2.312,8.386-7.113,8.889-12.596l2.742-29.97c3.572-2.441,7.036-4.987,10.336-7.624l28.328,6.478
			c5.476,1.277,11.211-0.546,14.947-4.746c10.075-11.225,18.877-23.53,26.247-36.691c2.651-4.754,2.605-10.552-0.122-15.263
			l-14.962-25.765c1.477-4.129,2.802-8.407,4.022-12.928l26.926-11.873c5.59-2.471,9.194-8.006,9.192-14.118v-41.916
			C398.975,173.519,395.37,167.982,389.78,165.513z M368.116,211.498l-24.635,10.864c-4.449,1.971-7.711,5.925-8.801,10.667
			c-1.729,7.817-4.119,15.474-7.142,22.888c-1.84,4.443-1.506,9.489,0.904,13.651l14.118,24.333
			c-3.686,5.854-7.717,11.483-12.069,16.86l-26.669-6.102c-4.849-1.138-9.946,0.154-13.667,3.466
			c-5.908,5.186-12.237,9.869-18.926,13.998c-4.116,2.55-6.795,6.885-7.232,11.707l-2.592,28.312
			c-6.158,2.5-12.457,4.638-18.864,6.403l-18.247-21.185c-2.931-3.404-7.2-5.362-11.693-5.363h-26.008
			c-4.492,0.001-8.76,1.959-11.693,5.363l-18.247,21.185c-6.413-1.765-12.715-3.904-18.879-6.403l-2.592-28.341
			c-0.447-4.814-3.125-9.142-7.232-11.692c-6.687-4.118-13.013-8.796-18.911-13.982c-3.72-3.31-8.817-4.602-13.666-3.466
			l-26.669,6.102c-4.353-5.377-8.382-11.007-12.07-16.86L70.75,269.57c2.409-4.162,2.745-9.208,0.905-13.651
			c-3.022-7.414-5.412-15.071-7.142-22.888c-1.09-4.742-4.35-8.696-8.801-10.667L31.078,211.5v-21.819l24.637-10.864
			c4.449-1.971,7.711-5.925,8.8-10.667c1.73-7.817,4.12-15.474,7.142-22.887c1.84-4.444,1.506-9.489-0.905-13.651l-14.118-24.334
			c3.686-5.854,7.715-11.483,12.068-16.86l26.669,6.103c4.849,1.128,9.942-0.164,13.666-3.466
			c5.908-5.186,12.237-9.869,18.926-13.998c4.116-2.55,6.794-6.886,7.232-11.707l2.592-28.312c6.158-2.5,12.458-4.639,18.864-6.403
			L174.9,53.817c2.932,3.404,7.2,5.361,11.693,5.363h26.006c4.492-0.002,8.76-1.961,11.693-5.363l18.247-21.185
			c6.413,1.765,12.716,3.903,18.879,6.403l2.592,28.341c0.447,4.814,3.125,9.142,7.232,11.691
			c6.687,4.118,13.013,8.797,18.911,13.983c3.722,3.304,8.818,4.596,13.667,3.466l26.669-6.103
			c4.353,5.377,8.384,11.007,12.069,16.86l-14.118,24.334c-2.408,4.162-2.744,9.208-0.904,13.651
			c3.022,7.414,5.412,15.071,7.142,22.887c1.09,4.743,4.35,8.696,8.801,10.667l24.635,10.864v21.819H368.116z"/>
	</g>
</g>
<g>
	<g>
		<path fill="#FDD935" d="M199.598,92.585c-59.649,0-108.004,48.355-108.004,108.004c0.071,59.619,48.386,107.933,108.004,108.004
			c59.649,0,108.004-48.355,108.004-108.004S259.248,92.585,199.598,92.585z M199.598,277.735c-42.606,0-77.146-34.54-77.146-77.146
			c0.05-42.586,34.56-77.096,77.146-77.146c42.606,0,77.146,34.54,77.146,77.146S242.204,277.735,199.598,277.735z"/>
	</g>
</g>
<g>
	<g>
		<path fill="#FDD935" d="M914.57,138.149l-21.306-9.402c-0.829-2.983-1.731-5.846-2.696-8.634l11.873-20.461
			c2.728-4.717,2.773-10.519,0.121-15.279c-6.246-11.123-13.693-21.525-22.21-31.024c-3.731-4.199-9.46-6.021-14.932-4.747
			L843,53.725c-2.2-1.719-4.461-3.385-6.78-5.003l-2.17-23.776c-0.498-5.485-3.887-10.29-8.89-12.596
			c-11.437-5.342-23.44-9.371-35.786-12.01c-5.5-1.174-11.203,0.756-14.856,5.032l-15.701,18.232h-7.533L735.582,5.371
			c-3.65-4.279-9.355-6.212-14.856-5.032c-12.343,2.639-24.349,6.666-35.786,12.01c-5.003,2.307-8.392,7.111-8.889,12.596
			l-2.17,23.776c-2.32,1.612-4.581,3.281-6.781,5.003l-22.421-5.123c-5.472-1.267-11.195,0.554-14.932,4.747
			c-8.519,9.497-15.961,19.907-22.194,31.04c-2.652,4.754-2.607,10.552,0.119,15.263l11.859,20.446
			c-0.964,2.787-1.863,5.67-2.696,8.648l-21.306,9.404c-5.597,2.463-9.209,8.002-9.205,14.118v34.926
			c-0.004,6.116,3.608,11.655,9.205,14.118l21.306,9.402c0.829,2.984,1.732,5.846,2.696,8.635l-11.873,20.463
			c-2.727,4.718-2.773,10.519-0.121,15.279c6.245,11.123,13.693,21.526,22.21,31.024c3.736,4.201,9.472,6.023,14.947,4.747
			l22.39-5.138c2.201,1.732,4.475,3.406,6.795,5.018l2.17,23.777c0.497,5.487,3.888,10.289,8.889,12.596
			c11.438,5.342,23.441,9.372,35.786,12.01c5.501,1.165,11.198-0.764,14.856-5.032l15.701-18.231h7.533l15.701,18.231
			c2.93,3.408,7.2,5.368,11.693,5.364c1.063,0.002,2.124-0.11,3.165-0.332c12.346-2.638,24.35-6.666,35.786-12.009
			c5.003-2.307,8.392-7.111,8.89-12.596l2.17-23.776c2.319-1.613,4.58-3.281,6.78-5.003l22.421,5.123
			c5.472,1.269,11.198-0.552,14.932-4.747c8.515-9.497,15.964-19.902,22.21-31.024c2.652-4.76,2.606-10.561-0.121-15.279
			l-11.873-20.461c0.965-2.787,1.869-5.651,2.696-8.635l21.306-9.402c5.598-2.463,9.21-8.002,9.206-14.118v-34.928
			C923.78,146.151,920.168,140.612,914.57,138.149z M892.918,177.145l-19.001,8.378c-4.471,1.965-7.742,5.935-8.814,10.698
			c-1.409,6.357-3.355,12.581-5.816,18.607c-1.84,4.448-1.507,9.499,0.904,13.667l10.983,18.926
			c-2.485,3.857-5.168,7.614-8.046,11.271l-20.673-4.731c-4.84-1.132-9.925,0.16-13.636,3.466
			c-4.807,4.216-9.956,8.021-15.398,11.375c-4.128,2.55-6.818,6.892-7.264,11.723l-2.004,22.029
			c-4.143,1.627-8.303,3.043-12.445,4.22l-14.133-16.409c-2.932-3.404-7.2-5.361-11.692-5.363h-21.666
			c-4.492,0.002-8.76,1.961-11.691,5.363l-14.133,16.409c-4.144-1.175-8.304-2.592-12.446-4.22l-2.004-22.029
			c-0.445-4.831-3.134-9.173-7.263-11.723c-5.441-3.35-10.587-7.157-15.385-11.375c-3.736-3.282-8.816-4.577-13.667-3.481
			l-20.657,4.731c-2.878-3.632-5.561-7.398-8.047-11.256l10.983-18.926c2.409-4.168,2.745-9.219,0.905-13.667
			c-2.461-6.027-4.407-12.252-5.817-18.607c-1.074-4.764-4.345-8.733-8.813-10.698l-19.001-8.378v-14.825l19.001-8.378
			c4.471-1.965,7.741-5.935,8.813-10.698c1.412-6.365,3.358-12.6,5.817-18.639c1.84-4.444,1.506-9.489-0.905-13.651l-10.97-18.926
			c2.471-3.842,5.153-7.608,8.031-11.255l20.673,4.731c4.839,1.119,9.919-0.172,13.636-3.466c4.806-4.216,9.955-8.021,15.398-11.375
			c4.127-2.55,6.817-6.891,7.263-11.723l2.004-22.029c4.144-1.628,8.304-3.043,12.446-4.22L732.521,49.1
			c2.932,3.404,7.199,5.362,11.693,5.364h21.667c4.491-0.002,8.762-1.959,11.693-5.364l14.133-16.409
			c4.143,1.175,8.303,2.592,12.445,4.22l2.004,22.029c0.445,4.832,3.134,9.173,7.264,11.723c5.442,3.354,10.592,7.159,15.398,11.375
			c3.714,3.298,8.798,4.59,13.636,3.466l20.673-4.731c2.878,3.647,5.561,7.402,8.046,11.271l-10.983,18.926
			c-2.409,4.168-2.744,9.219-0.904,13.667c2.461,6.027,4.407,12.253,5.816,18.608c1.074,4.764,4.346,8.733,8.814,10.698
			l19.001,8.378V177.145z"/>
	</g>
</g>
<g>
	<g>
		<path fill="#FDD935" d="M755.05,92.585c-42.605,0-77.146,34.54-77.146,77.146c0.05,42.586,34.56,77.096,77.146,77.146
			c42.606,0,77.146-34.54,77.146-77.146S797.656,92.585,755.05,92.585z M755.05,216.019c-25.564,0-46.287-20.723-46.287-46.288
			c0.026-25.553,20.734-46.261,46.287-46.288c25.564,0,46.288,20.724,46.288,46.288C801.338,195.295,780.612,216.019,755.05,216.019
			z"/>
	</g>
</g>
<g>
	<g>
		<path fill="#FDD935" d="M910.758,652.918l-22.36-4.702c-0.92-3.872-1.96-7.745-3.119-11.587l17.147-15.369
			c4.924-4.407,6.494-11.46,3.902-17.539c-7.443-17.273-16.961-33.574-28.342-48.549c-3.984-5.265-10.868-7.425-17.147-5.379
			l-21.562,7.082c-2.742-2.908-5.589-5.755-8.498-8.497l7.082-21.547c2.062-6.271-0.095-13.157-5.363-17.133
			c-14.972-11.4-31.279-20.93-48.563-28.372c-6.081-2.565-13.119-0.999-17.539,3.901l-15.369,17.161
			c-3.842-1.174-7.715-2.214-11.588-3.134l-4.702-22.36c-1.504-7.139-7.801-12.249-15.098-12.251h-52.613
			c-7.296,0.002-13.593,5.11-15.098,12.251l-4.702,22.36c-3.872,0.92-7.745,1.96-11.587,3.118l-15.369-17.147
			c-4.419-4.902-11.459-6.469-17.54-3.901c-17.272,7.442-33.573,16.961-48.548,28.342c-5.278,3.975-7.44,10.868-5.379,17.147
			l7.082,21.562c-2.908,2.742-5.755,5.589-8.497,8.497l-21.547-7.082c-6.271-2.03-13.141,0.12-17.133,5.364
			c-11.4,14.972-20.93,31.278-28.372,48.563c-2.593,6.079-1.022,13.132,3.901,17.539l17.161,15.369
			c-1.175,3.842-2.214,7.715-3.134,11.587l-22.361,4.702c-7.138,1.505-12.248,7.802-12.25,15.098v52.615
			c0.002,7.297,5.11,13.594,12.25,15.098l22.361,4.702c0.92,3.873,1.959,7.746,3.118,11.588l-17.147,15.369
			c-4.924,4.407-6.494,11.46-3.901,17.539c7.442,17.273,16.96,33.574,28.342,48.548c3.984,5.266,10.867,7.426,17.147,5.379
			l21.562-7.082c2.742,2.909,5.589,5.756,8.497,8.498l-7.082,21.547c-2.062,6.271,0.095,13.157,5.364,17.132
			c14.972,11.4,31.278,20.93,48.562,28.373c6.078,2.605,13.141,1.033,17.54-3.902l15.369-17.161
			c3.842,1.175,7.715,2.215,11.587,3.135l4.702,22.36c1.505,7.138,7.802,12.249,15.098,12.251h52.615
			c7.297-0.002,13.594-5.111,15.098-12.251l4.702-22.36c3.873-0.92,7.745-1.96,11.588-3.119l15.369,17.147
			c4.399,4.936,11.462,6.506,17.539,3.902c17.273-7.443,33.574-16.961,48.548-28.342c5.278-3.975,7.44-10.87,5.379-17.147
			l-7.082-21.562c2.908-2.742,5.755-5.59,8.498-8.498l21.547,7.082c6.27,2.047,13.147-0.107,17.132-5.363
			c11.4-14.973,20.93-31.279,28.373-48.563c2.592-6.079,1.021-13.132-3.902-17.539l-17.161-15.369
			c1.175-3.843,2.214-7.715,3.134-11.588l22.361-4.702c7.138-1.504,12.249-7.801,12.251-15.098v-52.615
			C923.007,660.722,917.897,654.423,910.758,652.918z M892.148,708.11l-19.964,4.205c-6.145,1.292-10.893,6.177-12.01,12.354
			c-1.666,9.151-4.091,18.146-7.247,26.897c-2.126,5.913-0.45,12.522,4.232,16.709l16.184,14.496
			c-4.025,8.039-8.58,15.802-13.636,23.234l-20.386-6.706c-5.973-1.949-12.532-0.098-16.604,4.687
			c-6.021,7.119-12.623,13.727-19.738,19.754c-4.781,4.069-6.627,10.625-4.671,16.59l6.706,20.37
			c-7.434,5.06-15.194,9.615-23.234,13.636l-14.51-16.183c-4.202-4.67-10.808-6.342-16.725-4.233
			c-8.737,3.163-17.725,5.587-26.866,7.247c-6.178,1.117-11.064,5.865-12.355,12.01l-4.204,19.966h-27.574l-4.204-19.966
			c-1.292-6.145-6.178-10.893-12.355-12.01c-9.151-1.666-18.146-4.09-26.896-7.247h0.002c-5.913-2.091-12.506-0.421-16.71,4.233
			l-14.496,16.183c-8.038-4.024-15.801-8.58-23.234-13.636l6.706-20.386c1.96-5.973,0.106-12.538-4.687-16.604
			c-7.119-6.021-13.727-12.623-19.753-19.737c-4.075-4.771-10.623-6.615-16.591-4.672l-20.372,6.706
			c-5.059-7.433-9.614-15.193-13.636-23.234l16.184-14.509c4.685-4.193,6.358-10.809,4.233-16.726
			c-3.163-8.737-5.588-17.725-7.248-26.866c-1.116-6.178-5.865-11.064-12.01-12.355l-19.966-4.204V680.54l19.966-4.204
			c6.145-1.292,10.894-6.178,12.01-12.354c1.666-9.151,4.091-18.147,7.248-26.897c2.125-5.913,0.449-12.522-4.233-16.71
			L513.32,605.88c4.025-8.038,8.581-15.801,13.636-23.234l20.386,6.706c5.973,1.95,12.532,0.099,16.604-4.687
			c6.021-7.118,12.623-13.727,19.738-19.753c4.781-4.069,6.627-10.625,4.671-16.591l-6.706-20.37
			c7.434-5.059,15.194-9.614,23.234-13.636l14.51,16.184c4.198,4.675,10.809,6.347,16.726,4.233
			c8.736-3.163,17.724-5.588,26.866-7.248c6.177-1.116,11.064-5.865,12.354-12.01l4.204-19.965h27.574l4.204,19.965
			c1.293,6.145,6.178,10.894,12.355,12.01c9.151,1.666,18.146,4.091,26.895,7.248c5.914,2.117,12.52,0.443,16.71-4.233
			l14.496-16.184c8.039,4.025,15.802,8.581,23.234,13.636l-6.706,20.386c-1.959,5.974-0.105,12.538,4.687,16.604
			c7.119,6.021,13.727,12.623,19.754,19.738c4.083,4.756,10.623,6.598,16.59,4.671l20.37-6.706
			c5.06,7.434,9.614,15.194,13.636,23.235l-16.183,14.509c-4.686,4.193-6.359,10.809-4.233,16.726
			c3.162,8.736,5.587,17.724,7.247,26.866c1.117,6.177,5.865,11.064,12.01,12.354l19.966,4.204V708.11z"/>
	</g>
</g>
<g>
	<g>
		<path fill="#FDD935" d="M693.333,555.462c-76.69,0-138.862,62.17-138.862,138.862c0,76.691,62.172,138.863,138.862,138.863
			c76.658-0.083,138.78-62.205,138.863-138.863C832.196,617.632,770.024,555.462,693.333,555.462z M693.333,802.329
			c-59.618-0.071-107.933-48.386-108.005-108.005c0-59.649,48.355-108.004,108.005-108.004s108.005,48.354,108.005,108.004
			S752.982,802.329,693.333,802.329z"/>
	</g>
</g>
<g>
	<g>
		<rect x="431.036" y="169.731" fill="#FDD935" width="123.435" height="30.858"/>
	</g>
</g>
<g>
	<g>
		<path fill="#FDD935" d="M429.795,672.832c-1.561-3.649-4.467-6.556-8.116-8.116l0,0l-108.005-46.288
			c-7.824-3.359-16.891,0.261-20.25,8.085c-0.826,1.925-1.252,3.998-1.25,6.093v30.858h-185.15V416.597H76.165v262.297
			c-0.006,8.517,6.895,15.423,15.412,15.429c0.006,0,0.012,0,0.018,0h200.58v30.858c-0.006,8.516,6.893,15.424,15.408,15.43
			c0.008,0,0.014,0,0.021,0c2.089,0.004,4.156-0.421,6.071-1.25l108.005-46.288C429.509,689.727,433.143,680.662,429.795,672.832z
			 M323.032,701.782v-45.774l53.4,22.888L323.032,701.782z"/>
	</g>
</g>
<g>
	<g>
		<path fill="#FDD935" d="M743.19,638.152l-66.328,79.602l-34.34-34.338l-21.816,21.817l46.287,46.287
			c2.89,2.898,6.816,4.524,10.909,4.521c0.226,0,0.467,0,0.692-0.015c4.333-0.195,8.384-2.201,11.165-5.53l77.146-92.575
			L743.19,638.152z"/>
	</g>
</g>
</svg>
