<?xml version="1.0" encoding="utf-8"?>
<!-- Generator: Adobe Illustrator 16.0.0, SVG Export Plug-In . SVG Version: 6.00 Build 0)  -->
<!DOCTYPE svg PUBLIC "-//W3C//DTD SVG 1.1//EN" "http://www.w3.org/Graphics/SVG/1.1/DTD/svg11.dtd">
<svg version="1.1" id="Capa_1" xmlns="http://www.w3.org/2000/svg" xmlns:xlink="http://www.w3.org/1999/xlink" x="0px" y="0px"
	 width="924px" height="924px" viewBox="0 0 924 924" enable-background="new 0 0 924 924" xml:space="preserve">
<g>
	<g>
		<path fill="#FDD935" d="M904.152,16.479h-683.3c-10.964,0-19.848,8.884-19.848,19.848v394.582H19.848
			C8.884,430.908,0,439.792,0,450.756V787.17c0,66.36,53.986,120.354,120.349,120.354c1.71,0,683.3,0,683.3,0
			c66.36,0,120.354-53.991,120.354-120.354V36.327C924,25.363,915.116,16.479,904.152,16.479z M39.695,787.17V470.604h161.31V787.17
			c0,44.472-36.181,80.658-80.659,80.658C75.876,867.828,39.695,831.642,39.695,787.17z M884.305,787.17
			c0,44.472-36.182,80.658-80.659,80.658H209.6c19.316-21.356,31.1-49.661,31.1-80.658V56.174h643.604V787.17z"/>
		<path fill="#FDD935" d="M534.627,245.729h254.387c10.965,0,19.849-8.884,19.849-19.848s-8.884-19.848-19.849-19.848H534.627
			c-10.964,0-19.848,8.884-19.848,19.848S523.666,245.729,534.627,245.729z"/>
		<path fill="#FDD935" d="M534.627,463.771h254.387c10.965,0,19.849-8.884,19.849-19.848s-8.884-19.848-19.849-19.848H534.627
			c-10.964,0-19.848,8.884-19.848,19.848S523.666,463.771,534.627,463.771z"/>
		<path fill="#FDD935" d="M534.627,681.818h254.387c10.965,0,19.849-8.885,19.849-19.849s-8.884-19.848-19.849-19.848H534.627
			c-10.964,0-19.848,8.884-19.848,19.848C514.779,672.932,523.666,681.818,534.627,681.818z"/>
		<path fill="#FDD935" d="M351.475,268.063c3.752,3.97,8.974,6.219,14.431,6.219c0.053,0,0.108,0,0.167,0
			c5.52-0.048,10.771-2.387,14.494-6.465l109.021-119.406c7.392-8.096,6.817-20.65-1.275-28.041
			c-8.095-7.386-20.649-6.817-28.041,1.275l-94.612,103.621l-29.451-31.188c-7.532-7.971-20.097-8.325-28.062-0.802
			c-7.971,7.526-8.325,20.086-0.802,28.057L351.475,268.063z"/>
		<path fill="#FDD935" d="M460.271,349.164L365.659,452.78l-29.457-31.183c-7.526-7.976-20.091-8.33-28.057-0.802
			c-7.971,7.526-8.325,20.086-0.802,28.057l44.131,46.725c3.752,3.97,8.974,6.219,14.431,6.219c0.053,0,0.108,0,0.167,0
			c5.52-0.048,10.771-2.387,14.494-6.465L489.588,375.93c7.387-8.095,6.817-20.649-1.275-28.041
			C480.221,340.498,467.663,341.066,460.271,349.164z"/>
		<path fill="#FDD935" d="M460.271,576.681l-94.612,103.615l-29.457-31.182c-7.526-7.977-20.091-8.334-28.057-0.802
			c-7.971,7.526-8.325,20.086-0.802,28.057l44.131,46.724c3.752,3.97,8.974,6.22,14.431,6.22c0.053,0,0.108,0,0.167,0
			c5.52-0.048,10.771-2.388,14.494-6.466l109.021-119.401c7.387-8.095,6.817-20.649-1.275-28.041
			C480.218,568.014,467.663,568.585,460.271,576.681z"/>
	</g>
</g>
</svg>
